# xmcd
#
# Track frame offsets: 
#        150
#        29707
#        50461
#        83782
#        100985
#        115238
#        140841
#        144534
#        158166
#        200756
#        227783
#        264052
#        288254
#
# Disc length: 3985 seconds
#
# Revision: 0
# Processed by: cddbd v1.5.2PL0 Copyright (c) Steve Scherf et al.
# Submitted via: ExactAudioCopy v1.0b1
#
DISCID=bd0f8f0d
DTITLE=Alexandre Dossin - Liszt complete piano music  v. 35
DYEAR=2011
DGENRE=Piano
TTITLE0=Eugene Onegin. Polonaise, piano transcription     S 429
TTITLE1=Arabesques, piano   [Solovei] - Le rossignol (The Nightingale)
TTITLE1=[Alyabiev] (2nd version)  S 250 
TTITLE2=Arabesques, piano   Chanson bohémienne [Bulakhov]  S 250 
TTITLE3=Abschied, piano     S 251 
TTITLE4=Mazurka ['par un amateur de St. Petersbourg'], piano transcrip
TTITLE4=tion     S 384
TTITLE5=Russlan and Ludmilla: Tscherkessenmarsch, piano transcription 
TTITLE5=S 406 
TTITLE6=Prélude à la Polka de Borodine, piano transcription     S 207a
TTITLE6=
TTITLE7=Galop russe, piano transcription (1st version)     S 478i 
TTITLE8=Tarentelle, piano transcription after Cui     S 482 
TTITLE9=Tarentelle, piano transcription after Dargomizhsky     S 483 
TTITLE10=O! wenn es doch immer so bliebe, piano transcription     Op. 
TTITLE10=34  No. 9  S 554-1
TTITLE11=Der Asra, piano transcription after Rubinstein     Op. 32  No
TTITLE11=6  S 554-2
TTITLE12=Lyubila ya, piano transcription after Wielhorsky (2nd version
TTITLE12=)     S 577ii
EXTD=
EXTT0=
EXTT1=
EXTT2=
EXTT3=
EXTT4=
EXTT5=
EXTT6=
EXTT7=
EXTT8=
EXTT9=
EXTT10=
EXTT11=
EXTT12=
PLAYORDER=
